<svg width="11" height="19" viewBox="0 0 11 19" fill="none" xmlns="http://www.w3.org/2000/svg">
<path d="M0 9.26367C0 9.09766 0.0276693 8.94824 0.0830078 8.81543C0.14388 8.68262 0.237956 8.55534 0.365234 8.43359L8.77393 0.307129C8.97868 0.102376 9.23047 0 9.5293 0C9.72852 0 9.90837 0.0498047 10.0688 0.149414C10.2349 0.24349 10.3649 0.370768 10.459 0.53125C10.5586 0.691732 10.6084 0.871582 10.6084 1.0708C10.6084 1.3641 10.5005 1.62142 10.2847 1.84277L2.58154 9.26367L10.2847 16.6763C10.5005 16.8976 10.6084 17.1549 10.6084 17.4482C10.6084 17.653 10.5586 17.8356 10.459 17.9961C10.3649 18.1621 10.2349 18.2922 10.0688 18.3862C9.90837 18.4803 9.72852 18.5273 9.5293 18.5273C9.23047 18.5273 8.97868 18.425 8.77393 18.2202L0.365234 10.0938C0.237956 9.97201 0.14388 9.84473 0.0830078 9.71191C0.0276693 9.57357 0 9.42415 0 9.26367Z" fill="#ffffff" style="mix-blend-mode:plus-darker"/>
</svg>
